<?xml version="1.0" standalone="no"?>
<!DOCTYPE svg PUBLIC "-//W3C//DTD SVG 20010904//EN"
 "http://www.w3.org/TR/2001/REC-SVG-20010904/DTD/svg10.dtd">
<svg version="1.0" xmlns="http://www.w3.org/2000/svg"
 width="225.000000pt" height="225.000000pt" viewBox="0 0 225.000000 225.000000"
 preserveAspectRatio="xMidYMid meet">

<g transform="translate(0.000000,225.000000) scale(0.100000,-0.100000)"
fill="#000000" stroke="none">
<path d="M148 2240 c-51 -15 -94 -49 -118 -92 l-25 -43 0 -980 0 -980 27 -45
c16 -28 43 -55 70 -70 l43 -25 980 0 980 0 45 27 c28 16 55 43 70 70 l25 43 0
980 0 980 -25 43 c-15 27 -42 54 -70 70 l-45 27 -965 2 c-531 1 -977 -2 -992
-7z m1093 -324 c92 -44 152 -140 152 -241 0 -82 -30 -146 -103 -220 l-60 -61
65 -64 65 -64 -52 -53 -53 -53 -182 182 -183 183 52 52 52 53 66 -65 66 -65
46 47 c57 60 68 81 68 133 0 34 -6 48 -34 76 -28 28 -42 34 -75 34 -23 0 -54
-6 -69 -14 -15 -8 -103 -91 -196 -184 -155 -156 -171 -170 -193 -161 -13 5
-57 9 -96 9 l-72 0 205 206 c227 227 265 261 318 281 49 18 167 12 213 -11z
m676 -674 c25 -51 25 -183 0 -234 -48 -96 -141 -153 -247 -152 -86 2 -130 22
-210 100 l-66 63 -64 -64 -64 -65 -53 52 -53 53 182 182 183 183 52 -52 53
-52 -66 -67 -65 -66 60 -55 c35 -33 71 -57 88 -60 116 -17 185 102 114 198
-16 21 -99 108 -184 193 -151 150 -155 154 -146 185 5 17 9 59 9 94 l0 63 229
-232 c126 -127 238 -247 248 -267z m-1223 126 c23 -11 68 -47 101 -79 l61 -59
64 65 64 65 53 -52 53 -53 -182 -182 -183 -183 -52 52 -53 52 66 67 65 66 -60
55 c-35 33 -71 57 -88 60 -116 17 -185 -102 -114 -198 16 -21 99 -108 184
-193 151 -150 155 -154 146 -185 -5 -17 -9 -60 -9 -96 l0 -65 -228 230 c-140
141 -235 245 -247 270 -24 51 -31 151 -15 202 52 157 229 234 374 161z m614
-695 l-52 -53 -67 66 -66 65 -56 -61 c-54 -58 -57 -64 -57 -112 0 -44 4 -54
34 -84 28 -28 42 -34 75 -34 23 0 54 6 69 14 15 8 103 91 196 184 165 166 169
170 200 161 17 -5 60 -9 95 -9 l64 0 -229 -228 c-133 -132 -246 -236 -269
-247 -54 -27 -184 -28 -237 -2 -95 48 -152 140 -152 247 0 83 25 134 105 215
l59 61 -65 64 -65 64 52 53 53 53 182 -182 183 -183 -52 -52z"/>
</g>
</svg>
