<svg id="Layer_1" data-name="Layer 1" xmlns="http://www.w3.org/2000/svg" viewBox="0 0 473.47 146.21"><defs><style>.cls-1{fill:#fff;}.cls-2{fill:#004f9d;}.cls-3{fill:none;}.cls-4{fill:#fdb71a;}</style></defs><title>University-of-Pittsburgh-logo</title><path class="cls-1" d="M17,192.45a74.31,74.31,0,0,0,17.2,21.39,80.68,80.68,0,0,0,26,15.06,80.67,80.67,0,0,0,26-15,74.56,74.56,0,0,0,17.2-21.41Zm43.25,22.83a8.55,8.55,0,1,1,8.55-8.55A8.56,8.56,0,0,1,60.25,215.28Zm4.39-94.94v-6.65a4.49,4.49,0,1,0-9,0v6.65H7.73V149H112.6V120.34ZM31.15,143.26a8.56,8.56,0,1,1,8.56-8.56A8.57,8.57,0,0,1,31.15,143.26Zm58.1,0a8.56,8.56,0,1,1,8.56-8.56A8.57,8.57,0,0,1,89.25,143.26Z" transform="translate(-2.16 -88.63)"/><path class="cls-2" d="M146.22,117.45c3.93,0,4.25.18,4.29,2.43l0,1.19c0,1.41.07,2.63.07,5.18v10.36c0,2,.65,12.23,13.45,12.23a13.43,13.43,0,0,0,8.95-3.06c3.1-2.79,4.6-7.19,4.6-13.46V122.11c0-2.53.19-3.61.7-4.12s1.67-.55,3.54-.54h.49c.49,0,.86-.52.86-1.2,0-.86-.32-1.23-1.09-1.23l-2,.06c-1.22,0-3.06.12-3.91.12-1.93,0-3.89-.08-5.19-.13h-.17l-1.29,0c-.38,0-.82.2-.82,1.14,0,.38,0,1.29.82,1.29h.31c2.12,0,3.4,0,4.11.66s1,2,1,5v9c0,8.91-3,13.25-9.28,13.25-8.41,0-9.67-6.83-9.67-10.9v-8.19c0-2.55,0-3.77.06-5.18l0-1.19c0-2.25.36-2.43,4.29-2.43,1,0,1-1,1-1.38,0-.73-.44-1-.87-1l-.54,0h-.41c-1.43,0-4.11.15-6.25.15s-4.73-.1-6.18-.15h-.37l-.6,0c-.43,0-.86.32-.86,1C145.26,116.44,145.26,117.45,146.22,117.45Z" transform="translate(-2.16 -88.63)"/><path class="cls-2" d="M180.19,129.6a.87.87,0,0,0,.82,1c1.94.19,2.26.83,2.26,2.26v6.2a46.29,46.29,0,0,1-.24,6.33c-.19.46-.23.81-1.84.81-1.45,0-1.77,0-1.77,1.14,0,.79.44,1,.82,1l.8,0c.86,0,2.3-.07,5.31-.07,2.51,0,3.37,0,3.74.08h.24c.61,0,.91-.36.91-1.05,0-1.05-.47-1.05-1.58-1.05-1.5,0-1.81,0-1.81-2.66V132.31a.62.62,0,0,1,.21-.45,7.09,7.09,0,0,1,3.68-1.53c4.29,0,4.6,2.48,4.6,6.55V145c0,1.07-.24,1.21-2.36,1.21-.75,0-.85.55-.85,1.09,0,1,.65,1,.78,1l.38,0c.51,0,1.57-.07,4.37-.07,1.35,0,4,.09,4.57.09a1,1,0,0,0,1.09-1.05c0-.29,0-1.05-.91-1.05-2.48,0-2.48-.62-2.48-1.17V134.17c0-4.67-2.28-7.25-6.43-7.25a11.13,11.13,0,0,0-5.71,2.11.88.88,0,0,1-.73.12c-.2-.12-.18-.42-.17-.65s0-.61,0-.85,0-.33,0-.4c0-.24,0-1-.59-1a1.64,1.64,0,0,0-.83.32,16.16,16.16,0,0,1-5.6,1.9C180.46,128.6,180.19,128.69,180.19,129.6Z" transform="translate(-2.16 -88.63)"/><path class="cls-2" d="M206.56,148.3l.8,0c.86,0,2.27-.07,5.28-.07,2.31,0,3.15,0,3.51.08h.24c.61,0,.92-.36.92-1.05,0-1.05-.69-1.05-1.55-1.05-1.5,0-1.62,0-1.62-2.66v-9.78a55.84,55.84,0,0,1,.21-6.32c0-.09.23-1.15-.72-1.15a1.58,1.58,0,0,0-.82.32,16.16,16.16,0,0,1-5.6,1.9,1,1,0,0,0-.73,1.09.87.87,0,0,0,.82,1c1.94.19,2.25.5,2.25,1.93v6.53a49.55,49.55,0,0,1-.23,6.33c-.2.46-.49.81-1.5.81-1.45,0-2.09,0-2.09,1.14C205.73,148.13,206.18,148.3,206.56,148.3Z" transform="translate(-2.16 -88.63)"/><path class="cls-2" d="M211.83,120.92a2.86,2.86,0,1,0-2.82-2.86A2.88,2.88,0,0,0,211.83,120.92Z" transform="translate(-2.16 -88.63)"/><path class="cls-2" d="M218.28,130c.09,0,1-.07,1.26.42s1.39,3.6,2.43,6.41c1.23,3.34,3.76,9.56,3.89,9.86.68,1.5,1,2.19,1.69,2.19s1.19-.59,2.58-3.92c.27-.62,3.92-8.88,5-11.43,1.63-3.84,1.21-3.45,3.69-3.58h.08a.93.93,0,0,0,.93-1.08c0-.55-.21-1.14-.77-1.14s-1.42,0-2.07,0h0c-.68,0-1.34,0-2,0s-1.29,0-1.93,0H233c-.63,0-1.53,0-2.12,0s-.81.66-.81,1.14c0,.76.34,1,.77,1,2.31,0,2.68.15,2.68.71,0,1-.6,2.61-4,10.13-.1.22-.29.57-.53.58s-.46-.37-.56-.6c-1.74-4.19-3.62-9.36-3.62-10.31,0-.11-.11-.45.37-.48s1.09,0,1.7,0h.24c.54,0,.74-.54.74-1,0-.74-.3-1.15-.79-1.15l-5.39.09c-.69,0-4.31-.09-4.31-.09-.9,0-.9.9-.9,1.29C216.46,129.88,217.18,130,218.28,130Z" transform="translate(-2.16 -88.63)"/><path class="cls-2" d="M249.22,148.84a8.63,8.63,0,0,0,8.25-6.21c0-.44-.67-1-1.19-1s-.65.36-.88.72l-.17.25a5.49,5.49,0,0,1-4.93,2.51,7.09,7.09,0,0,1-7-7c0-.58,0-1.1.06-1.58,0-.31.13-.54.44-.54H256a.87.87,0,0,0,1-1c0-.85-.24-8.29-8.57-8.29-4.67,0-9.51,4.24-9.51,11.32C238.89,144.91,242.66,148.84,249.22,148.84ZM244,133c.69-2.75,2.16-4.14,4.36-4.14,1.06,0,3.53.37,3.53,3.84,0,.88-.33,1-1.08,1h-6.23a.73.73,0,0,1-.55-.17A.72.72,0,0,1,244,133Z" transform="translate(-2.16 -88.63)"/><path class="cls-2" d="M259.1,148.3l1,0h.08c.75,0,1.89-.06,4.28-.06,1.13,0,2.07,0,2.89,0s1.69,0,2.44,0c.55,0,1-.09,1-1.1s-.49-1-2.31-1-1.8-.51-1.8-2.21V133.72a2.5,2.5,0,0,1,.19-1.15,4.05,4.05,0,0,1,2.78-1.65c.45,0,.74.27,1.14.63a3.18,3.18,0,0,0,2.35,1.09,2.68,2.68,0,0,0,2.67-2.72c0-1.8-1.35-3-3.35-3a7.72,7.72,0,0,0-4.8,2.23c-.19.16-.57.35-.79.24s-.2-.49-.18-.74,0-.43,0-.61V128a7.07,7.07,0,0,0,.06-.77c0-.35-.18-.91-.64-.91a1.64,1.64,0,0,0-.83.32,16.2,16.2,0,0,1-5.6,1.9c-.68.14-.73.51-.73,1.09a.87.87,0,0,0,.82,1c1.94.19,2.26.82,2.26,2.26v11.49c0,1.69-.16,1.85-1.85,1.85-1.12,0-1.87,0-1.87,1.05C258.34,148,258.68,148.3,259.1,148.3Z" transform="translate(-2.16 -88.63)"/><path class="cls-2" d="M277.78,147.58c.07.35.14.82.61.95a8.39,8.39,0,0,0,1.77,0c.85,0,3.1.29,3.92.29,6.81,0,7.47-5.06,7.47-6.61,0-4.32-2.28-5.22-5.43-6.46h0c-.85-.33-1.81-.71-2.83-1.2a3,3,0,0,1-1.87-2.62c0-1.83,1.18-2.93,3.16-2.93s3.3,1.18,4.25,3.5l.08.19c.33.86.8.79,1.28.79.8,0,1-.34,1-.82a6,6,0,0,0-.16-1.07,17.05,17.05,0,0,1-.34-2.55c0-1-.12-1.55-1-1.72a39.88,39.88,0,0,0-5-.42c-4.25,0-7.34,2.78-7.34,6.62s3.29,5.06,5.94,6.1c2.25.89,4.2,1.65,4.2,3.53a3.39,3.39,0,0,1-3.66,3.57c-2.62,0-3.7-1.79-4.41-3.12-.42-.8-.65-1.45-1.29-1.45-.85,0-1.31.13-1.31.61a30.21,30.21,0,0,0,.66,3.13C277.6,146.74,277.72,147.24,277.78,147.58Z" transform="translate(-2.16 -88.63)"/><path class="cls-2" d="M294.15,148.3l.79,0c.86,0,2.3-.07,5.31-.07,2.31,0,3.15,0,3.51.08H304c.6,0,.91-.36.91-1.05,0-1.05-.68-1.05-1.54-1.05-1.5,0-1.62,0-1.62-2.66v-9.78a59.57,59.57,0,0,1,.2-6.32.8.8,0,0,0,0-.19c0-.67-.37-1-.73-1a1.64,1.64,0,0,0-.83.32,16.06,16.06,0,0,1-5.59,1.9,1,1,0,0,0-.74,1.09.87.87,0,0,0,.82,1c1.94.19,2.26.5,2.26,1.93v6.53a46.29,46.29,0,0,1-.24,6.33c-.19.46-.42.81-1.43.81-1.45,0-2.18,0-2.18,1.14C293.32,148.13,293.77,148.3,294.15,148.3Z" transform="translate(-2.16 -88.63)"/><path class="cls-2" d="M299.44,120.92a2.86,2.86,0,1,0-2.81-2.86A2.88,2.88,0,0,0,299.44,120.92Z" transform="translate(-2.16 -88.63)"/><path class="cls-2" d="M305.2,130.47a.88.88,0,0,0,.45.1h2.25s0,.07,0,.13v12.07c0,3.91,2,6.07,5.66,6.07,4.18,0,6.48-2.15,6.48-2.86,0-.45-.45-1.18-1-1.18a1.25,1.25,0,0,0-.57.22,5.33,5.33,0,0,1-2.51.82c-3,0-3.52-1-3.52-6.06V131c0-.15,0-.36.11-.47a.74.74,0,0,1,.49-.12h0c2.17,0,2.74.08,3.17.1l.36,0c1,0,1.68,0,1.68-1.28s-.52-1.56-.86-1.56c-.9,0-1.69,0-2.23.06h-.07c-.57,0-.78.07-2,.08h0c-.16,0-.4,0-.51-.11a.71.71,0,0,1-.08-.5c.06-1.62.09-2.59.09-3a1,1,0,0,0-1-1.05c-.6,0-1,.49-1.78,1.39a25.77,25.77,0,0,1-4.48,4.28,1.05,1.05,0,0,0-.44,1A.66.66,0,0,0,305.2,130.47Z" transform="translate(-2.16 -88.63)"/><path class="cls-2" d="M320.76,130c1.42,0,2.36.1,2.62.73.36.88.64,1.9,1,3.2.73,2.39,1.72,5.66,3.58,10.44l.14.34a20.14,20.14,0,0,1,1.41,4.56c0,2-2,5.72-2.5,6a1.9,1.9,0,0,1-.49-.23,3.42,3.42,0,0,0-1.75-.54,3,3,0,1,0-.09,6c1.79,0,3.34-.69,6.9-9.61.54-1.37,2.64-5.88,4.68-10.25l.08-.16c1.55-3.32,3.38-7.2,4.14-9,.57-1.32.89-1.49,2.46-1.49.8,0,1.16-.37,1.16-1.11a1.3,1.3,0,0,0-.26-1,1,1,0,0,0-.69-.26c-.72,0-1.42,0-2,0-1.29,0-2.79,0-4.18,0-.69,0-1.56,0-2.3,0-.49,0-.77.46-.77,1.05,0,1.29.71,1.29.93,1.29h.4c.83,0,2-.06,2.44.35a.65.65,0,0,1,.17.49c0,.58-.86,3.13-4.74,11.27a.57.57,0,0,1-.56.33.56.56,0,0,1-.53-.38c-2.12-5.52-3.53-9.61-3.53-11.59,0-.31.12-.54,1.76-.54.6,0,.87-.63.87-1.22a.94.94,0,0,0-1-1.05c-.65,0-1.34,0-2.11,0s-1.57,0-2.37,0c-1,0-2.36,0-3.37-.06h-.31l-1.12,0c-.48,0-.77.34-.77,1S320.16,130,320.76,130Z" transform="translate(-2.16 -88.63)"/><path class="cls-2" d="M375.21,130.6h2.16c.41,0,.72.1.72.68v13.8c0,.56-.28,1.09-1.21,1.09-1.46,0-1.6,0-1.82.25a1.23,1.23,0,0,0-.22.83c0,.77.27,1.05.87,1.05h.43c.54,0,1.65-.07,4.36-.07,1.07,0,1.94,0,2.89,0,.73,0,1.6,0,2.39,0,.55,0,1-.09,1-1.1s-.51-1-1.95-1c-2.34,0-2.17-.51-2.17-2.21V131.22a.6.6,0,0,1,.18-.42.57.57,0,0,1,.44-.17c.74,0,1.65.09,2.4.13h.06c.75,0,1.53.13,1.65.13,1,0,1.34-.52,1.34-1.52,0-1.16-.39-1.41-1-1.41h-4.52a.6.6,0,0,1-.59-.59v-4.78c0-2.79.45-6.11,2.57-6.11.69,0,.93.3,1.7.94a4.54,4.54,0,0,0,2.78,1.15,2.5,2.5,0,0,0,2.59-2.68c0-1.67-1.66-2.41-3.31-2.41a13.9,13.9,0,0,0-2.88.38c-5.31,1.39-7.68,5-8.17,12.5-.11,1.68-.26,1.53-2,2-1.18.3-1.76.37-1.76,1.22S374.59,130.57,375.21,130.6Z" transform="translate(-2.16 -88.63)"/><path class="cls-2" d="M186.88,165.22c-3.57-4.38-9.43-6.61-17.43-6.61-2.87,0-6.93.16-9.14.25l-1.8.06c-3.59,0-7.5-.17-9.6-.26h-.1l-1.32,0c-.7,0-1.15.57-1.15,1.46,0,.66,0,1.76,1.31,1.76,5.27,0,6.4.41,6.47,4.72l0,1.83c.06,2.55.11,4.57.11,9v18.87c0,3.21-.07,8-.23,11.94-.06,1.64-.11,3.17-6.17,3.17-2.25,0-2.62.52-2.62,1.77,0,.68.17,1.46,1.07,1.46,1.7,0,2.86-.16,12.18-.16,6.92,0,12.08.16,14,.16,1.07,0,1.22-.92,1.22-1.61,0-1.4-.66-1.62-3.12-1.62-7.5,0-7.45-1.5-7.59-4.2v-.45c-.07-2.17-.14-4.41-.14-15.29a.58.58,0,0,1,.2-.45.61.61,0,0,1,.48-.14,50.38,50.38,0,0,0,8.19.56c5.43,0,10-1.48,13.28-4.3,3.45-3,5.28-7.41,5.28-12.8A15.12,15.12,0,0,0,186.88,165.22ZM181,174.94c0,8.06-5.6,13.26-14.27,13.26-3.93,0-3.93-1.15-3.93-2.47v-18c0-2.81.09-4.47.8-5.19s2.33-.75,5.22-.75C176,161.83,181,167.22,181,174.94Z" transform="translate(-2.16 -88.63)"/><path class="cls-2" d="M207.24,211.7c-2.86,0-3.09-.36-3.09-4.86V190.2a96.07,96.07,0,0,1,.36-10.83,2,2,0,0,0,0-.27c0-.9-.46-1.3-.92-1.3a2.5,2.5,0,0,0-1.23.5c-1.12.66-3.44,2-9.65,3.28a1.39,1.39,0,0,0-1,1.53,1.18,1.18,0,0,0,1.11,1.38c3.54.35,4.13,1.57,4.13,4.17v10.55c0,5.59-.18,10.38-.42,10.92-.44,1-1,1.57-2.75,1.57-2.78,0-3.38.14-3.38,1.61,0,.36,0,1.31,1.07,1.31l1.32,0c1.45-.05,3.88-.13,9.09-.13,3.9,0,5.36.1,6,.14l.4,0c1.23,0,1.23-1.06,1.23-1.46C209.55,211.76,208.88,211.7,207.24,211.7Z" transform="translate(-2.16 -88.63)"/><path class="cls-2" d="M200.54,158.92a4.54,4.54,0,1,0,4.46,4.54A4.56,4.56,0,0,0,200.54,158.92Z" transform="translate(-2.16 -88.63)"/><path class="cls-2" d="M233.38,209.31c-.2,0-.38.11-.82.35a9.5,9.5,0,0,1-4.42,1.43c-5.81,0-6.33-2.76-6.33-10.64V185.31a.58.58,0,0,1,.17-.41.61.61,0,0,1,.43-.18c4.29,0,6.64.24,7.65.33l.72.06c1.93,0,2.54-.87,2.54-2.39,0-.51,0-2.07-1.23-2.07h-9.68a.62.62,0,0,1-.6-.6c0-2.13.1-3.43.16-4.4,0-.63.07-1.13.07-1.63a1.36,1.36,0,0,0-1.38-1.46c-.88,0-1.6.85-2.79,2.25a43.94,43.94,0,0,1-7.66,7.33,1.48,1.48,0,0,0-.64,1.43,1,1,0,0,0,.92,1.15h3.67c.39,0,.5.1.5.44v20.37c0,8.27,5.07,10,9.32,10,7.13,0,10.7-3.67,10.7-4.54C234.68,210.38,234,209.31,233.38,209.31Z" transform="translate(-2.16 -88.63)"/><path class="cls-2" d="M259.39,209.31a2,2,0,0,0-.82.35,9.46,9.46,0,0,1-4.42,1.43c-5.81,0-6.33-2.76-6.33-10.64V185.31a.55.55,0,0,1,.18-.41.58.58,0,0,1,.42-.18c4.29,0,6.65.24,7.65.33l.72.06c1.93,0,2.54-.87,2.54-2.39,0-.51,0-2.07-1.22-2.07h-9.69a.56.56,0,0,1-.42-.18.55.55,0,0,1-.17-.42c0-2.13.1-3.43.16-4.4,0-.63.07-1.13.07-1.63a1.37,1.37,0,0,0-1.39-1.46c-.88,0-1.59.85-2.79,2.25a43.94,43.94,0,0,1-7.66,7.33,1.49,1.49,0,0,0-.63,1.43c0,.75.46,1.15.91,1.15h3.67c.39,0,.5.1.5.44v20.37c0,8.27,5.07,10,9.32,10,7.13,0,10.7-3.67,10.7-4.54C260.69,210.38,260.05,209.31,259.39,209.31Z" transform="translate(-2.16 -88.63)"/><path class="cls-2" d="M278.13,193.92s-3.11-1.22-4.85-2c-1.25-.63-3.36-2.08-3.36-4.75,0-3.29,2.18-5.33,5.71-5.33,3.33,0,5.87,2.07,7.54,6.16l0,.1a1.8,1.8,0,0,0,2,1.37c.78,0,1.3-.43,1.3-1.07a10.51,10.51,0,0,0-.25-1.75,29.21,29.21,0,0,1-.59-4.42c0-.83-.32-2.32-1.5-2.59a60.43,60.43,0,0,0-8.44-.71c-7.05,0-12.16,4.6-12.16,10.93s5.25,8.26,9.9,10.09c3.78,1.49,7.36,2.9,7.36,6.33,0,5.05-4.13,6.4-6.56,6.4-4.66,0-6.44-3.33-7.61-5.53-.71-1.31-1.21-2.26-2.1-2.26-.46,0-1.84,0-1.84.92,0,.46,1.68,7.87,1.77,8.32a1,1,0,0,0,.84.85c3.17,0,6.26.61,8.86.61,12.08,0,13-8.37,13-10.93C287.18,197.48,283.38,196,278.13,193.92Z" transform="translate(-2.16 -88.63)"/><path class="cls-2" d="M320.65,182.6a16.58,16.58,0,0,0-11.27-4.19,12.62,12.62,0,0,0-7.92,2.36.6.6,0,0,1-.63,0,.58.58,0,0,1-.32-.52V167.77a72.71,72.71,0,0,1,.35-9.85c0-.07,0-.34,0-.44,0-1-.49-1.11-.91-1.11a6.18,6.18,0,0,0-1.76.59,38.27,38.27,0,0,1-9,2.73c-.85.14-1,.69-1,1.52a1.25,1.25,0,0,0,1.11,1.38l.16,0c3.89.35,3.89.35,3.89,6.55v40.22c0,1-.15,3.42-.15,3.93,0,.36,0,1.46,1.07,1.46s1.22-.59,1.53-1.1.73-1.15,1.63-1.15a9.43,9.43,0,0,1,3,1,21.83,21.83,0,0,0,8.69,2,16.94,16.94,0,0,0,11.21-4.31c3.75-3.38,5.74-8.36,5.74-14.41S324.21,185.85,320.65,182.6Zm-2.78,15.3c0,9.91-3.06,14.73-9.34,14.73-5.39,0-8-3.21-8-9.79v-14c0-4.49,2.83-7.17,7.56-7.17C316.17,181.64,317.87,190.48,317.87,197.9Z" transform="translate(-2.16 -88.63)"/><path class="cls-2" d="M365.75,209.93c-.24,0-2.48.31-3.07.31-1.37,0-1.47-1-1.47-2.4V193.36c0-4.43.45-9.14.62-10.92.06-.56.07-.72.07-.79a1.4,1.4,0,0,0-1.53-1.54c-1,0-2,.06-3,.12s-1.94.11-2.9.11c-3.14,0-5.32-.23-6.53-.23-1,0-1.17.67-1.17,2s1.42,1.22,2.92,1.22c3.78,0,4.33.26,4.33,4.17v20c0,2-4.41,3.63-7.18,3.63-5,0-7.1-2.51-7.1-8.64v-20.8c0-1.07-.15-1.54-1.06-1.54-.43,0-1.1,0-2,.08h0c-1.29.06-3,.15-4.72.15s-2.69-.09-3.51-.16c-.42,0-.75-.07-1-.07-1.49,0-1.3,1.4-1.3,2,0,1.1,1.51,1.22,2.15,1.22,3.58,0,4.32,0,4.32,6.79v12c0,9.39,3.07,13.4,10.24,13.4a21.48,21.48,0,0,0,10.93-3.74,19.34,19.34,0,0,0-.13,2,1.49,1.49,0,0,0,1.38,1.53c1.12,0,4.28-1.24,8.93-2,2.22-.35,2.93-.5,2.93-1.45C366.91,210.66,366.74,209.93,365.75,209.93Z" transform="translate(-2.16 -88.63)"/><path class="cls-2" d="M392.88,178.88c-2.78,0-5.9,1.65-9.27,4.91a.7.7,0,0,1-.72.19.62.62,0,0,1-.28-.64c.06-1.32.16-2.3.23-3,.05-.52.1-1,.1-1.29s.13-1.22-.77-1.22a2.6,2.6,0,0,0-1.24.5c-1.11.66-3.43,2-9.64,3.28a1.39,1.39,0,0,0-1,1.53,1.18,1.18,0,0,0,1.1,1.38c3.54.35,4.14,1.57,4.14,4.17v19.57c0,3.05-.42,3.47-3.47,3.47-1.94,0-2.85,0-2.85,1.46s.81,1.46,1.15,1.46.91,0,1.58,0c1.28-.05,3.21-.12,7.36-.12,1.85,0,3.38,0,4.86.08h.06c1.24,0,2.53.07,3.87.07,1.17,0,1.6-.12,1.6-1.54s-.64-1.38-3.61-1.38c-3.4,0-3.4-1.19-3.4-4.09V190.12a4.27,4.27,0,0,1,.42-2.16,7,7,0,0,1,5-2.93,3.14,3.14,0,0,1,2.15,1.17A5.23,5.23,0,0,0,394,188a4.23,4.23,0,0,0,4.23-4.31C398.27,180.75,396.15,178.88,392.88,178.88Z" transform="translate(-2.16 -88.63)"/><path class="cls-2" d="M429.07,184.74c.74,1.13,1.67,2.52,3.35,2.52a3.31,3.31,0,0,0,3.38-3.15c0-1.43-.6-4.77-6.23-4.77a9.37,9.37,0,0,0-5.75,2,.61.61,0,0,1-.67,0,16.79,16.79,0,0,0-9-2.66,14.88,14.88,0,0,0-9.72,3.71,12.46,12.46,0,0,0-4.37,9.38c0,4.85,1.59,8.3,4.87,10.52a.65.65,0,0,1,.34.47.71.71,0,0,1-.31.5c-3,2.2-4.83,4.38-4.83,8.47a5.12,5.12,0,0,0,3.28,4.53c.19.09.42.23.45.43a.81.81,0,0,1-.26.54c-2.88,2.89-5.54,5.71-5.54,9.94,0,5.18,3.4,7.7,10.39,7.7,3.27,0,9.55-.41,14.87-3.2s7.85-6.81,7.85-12.28a9.64,9.64,0,0,0-1.38-5.17c-1.79-2.5-4.91-3.87-9.55-3.87h-11.4c-2.28,0-3.17-.59-3.17-2.09a5,5,0,0,1,2.36-4.18,1,1,0,0,1,.85-.12,18.67,18.67,0,0,0,5,.67c8.88,0,14.17-5.13,14.17-13.71a15.47,15.47,0,0,0-2.69-7.37,1.78,1.78,0,0,1,1.65-.79C428.13,182.73,428.48,183.86,429.07,184.74Zm-25.7,39c0-3.81,4-6.82,4-6.82h11.38c5.45,0,7.7,1.15,7.7,5.21,0,4.94-3.83,8.25-12.42,8.25C404.14,230.39,403.37,225.31,403.37,223.75Zm10.79-22.06c-5.64,0-6.48-5.46-6.48-8.72,0-7.57,2.29-11.41,6.79-11.41,5.43,0,6,6.2,6,8.87C420.49,194.63,419.67,201.69,414.16,201.69Z" transform="translate(-2.16 -88.63)"/><path class="cls-2" d="M474.41,211.7c-4.55,0-4.55-1.28-4.55-2.32V190.89c0-7.75-3.78-12-10.63-12-4.42,0-7.77,1.74-10.74,3.63a.57.57,0,0,1-.6,0,.58.58,0,0,1-.3-.52V167.77c0-5.62.31-9.2.37-10.27s-.24-1.38-.91-1.38a6,6,0,0,0-1.76.6,36.39,36.39,0,0,1-9,2.72c-1,.15-1,.7-1,1.53a1.27,1.27,0,0,0,1.11,1.38c4,.36,4.06.37,4.06,6.81v27c0,4.83-.2,13.37-.43,14a2.25,2.25,0,0,1-2.36,1.57c-2.78,0-3.38.14-3.38,1.61,0,.36,0,1.31,1.07,1.31l.89,0c1.2,0,3.7-.13,9.13-.13,4.23,0,5.74.1,6.39.14l.39,0c1.23,0,1.23-1.06,1.23-1.46,0-1.46-.55-1.46-2.7-1.46-2.85,0-3.08-.36-3.08-4.86V186.37c.56-.94,3.75-2.34,6.95-2.34,7.62,0,8.17,4.34,8.17,11.48v13.8c0,2.09-.26,2.39-4.18,2.39-1.13,0-1.29.83-1.29,1.54,0,1.28.76,1.38,1,1.38l.66,0c.89,0,2.74-.13,7.43-.13,2.33,0,3.76,0,5,.1h.11c.91,0,1.85.06,2.81.06,1.39,0,1.38-.9,1.38-1.38C475.63,212.5,475.54,211.7,474.41,211.7Z" transform="translate(-2.16 -88.63)"/><path class="cls-2" d="M363.18,126.9a10.73,10.73,0,0,0-11,11,10.61,10.61,0,0,0,11,11c6.6,0,11-4.41,11-11A10.65,10.65,0,0,0,363.18,126.9Zm5.77,11c0,7.32-3.13,8.85-5.77,8.85-4.73,0-5.72-4.81-5.72-8.85,0-8.21,4.38-8.85,5.72-8.85C368.54,129,369,135.81,369,137.88Z" transform="translate(-2.16 -88.63)"/><path class="cls-3" d="M112.6,120.34h-48v-6.65a4.49,4.49,0,1,0-9,0v6.65H7.73V149H112.6Z" transform="translate(-2.16 -88.63)"/><path class="cls-3" d="M17,192.45a74.31,74.31,0,0,0,17.2,21.39,80.68,80.68,0,0,0,26,15.06,80.67,80.67,0,0,0,26-15,74.56,74.56,0,0,0,17.2-21.41Z" transform="translate(-2.16 -88.63)"/><path class="cls-4" d="M104.33,190.53c5.49-11.08,8.27-23.82,8.27-37.84V149H7.73v3.7c0,14,2.79,26.74,8.28,37.83.32.65.65,1.29,1,1.93h86.34C103.68,191.81,104,191.18,104.33,190.53Z" transform="translate(-2.16 -88.63)"/><path class="cls-2" d="M53.71,98.17H66.88v3.17H53.71Zm13.16-2c0-1.68,2.46-2.38,2.46-5.34V88.63H65.51V90.8H62.2V88.63H58.38V90.8H55.07V88.63H51.25V90.8c0,2.85,2.46,3.66,2.46,5.34ZM30.1,106.5H43.24v-3.16H30.1Zm13.14-5.16c0-1.68,2.48-2.38,2.48-5.34V93.83H41.9V96H38.59V93.83H34.77V96H31.46V93.83H27.64V96c0,2.85,2.46,3.66,2.46,5.34Zm33.84,5.16H90.21v-3.16H77.08Zm13.13-5.16c0-1.68,2.49-2.38,2.49-5.34V93.83H88.87V96h-3.3V93.83H81.74V96h-3.3V93.83H74.61V96c0,2.85,2.47,3.66,2.47,5.34Zm28,13.53v37.82c0,14.95-3,28.56-8.92,40.45a79.58,79.58,0,0,1-19.66,25.1A82.89,82.89,0,0,1,60.92,234.5l-.75.22-.76-.22a83.11,83.11,0,0,1-28.67-16.27,79.84,79.84,0,0,1-19.66-25.1c-5.92-11.89-8.92-25.5-8.92-40.44V114.87H27.64v-.71c0-2.85,2.24-4.16,2.46-5.56H43.24c.24,1.36,2.48,2.6,2.48,5.56v.71h2.75v-.73c0-4.5-2.75-5.11-2.75-8v-2.84h3.83v2.21H52v-2.21h3.84v2.21h2.38v-2.21h3.83v2.21h2.38v-2.21h3.84v2.21h2.47v-2.21h3.83v2.84c0,2.85-2.75,3.46-2.75,8v.73h2.77v-.71c0-2.85,2.25-4.16,2.47-5.56H90.21c.25,1.36,2.49,2.6,2.49,5.56v.71Zm-14.83,77.58c.34-.64.67-1.27,1-1.92,5.49-11.08,8.27-23.82,8.27-37.84V120.34h-48v-6.65a4.49,4.49,0,1,0-9,0v6.65H7.73v32.35c0,14,2.79,26.74,8.28,37.83.32.65.65,1.29,1,1.93a74.31,74.31,0,0,0,17.2,21.39,80.68,80.68,0,0,0,26,15.06,80.67,80.67,0,0,0,26-15A74.56,74.56,0,0,0,103.34,192.45Zm-71.69-16H20.24v11.41H31.65ZM43.06,165H31.65v11.42H43.06ZM31.65,153.6H20.24V165H31.65Zm68.51,22.83H88.75v11.41h11.41Zm0-22.83H88.75V165h11.41Zm-22.83,0H65.92V165H77.33ZM65.92,165H54.51v11.42H65.92Zm22.83,0H77.33v11.42H88.75ZM77.33,176.43H65.92v11.41H77.33Zm-22.86,0H43.06v11.41H54.47Zm0-22.83H43.1V165H54.51Zm5.74,44.58a8.55,8.55,0,1,0,8.55,8.55A8.57,8.57,0,0,0,60.25,198.18Zm-29.1-72a8.56,8.56,0,1,0,8.56,8.55A8.57,8.57,0,0,0,31.15,126.15Zm58.1,0a8.56,8.56,0,1,0,8.56,8.55A8.57,8.57,0,0,0,89.25,126.15Z" transform="translate(-2.16 -88.63)"/></svg>