<?xml version="1.0" standalone="no"?>
<!DOCTYPE svg PUBLIC "-//W3C//DTD SVG 20010904//EN"
 "http://www.w3.org/TR/2001/REC-SVG-20010904/DTD/svg10.dtd">
<svg version="1.0" xmlns="http://www.w3.org/2000/svg"
 width="225.000000pt" height="224.000000pt" viewBox="0 0 225.000000 224.000000"
 preserveAspectRatio="xMidYMid meet">

<g transform="translate(0.000000,224.000000) scale(0.100000,-0.100000)"
fill="#000000" stroke="none">
<path d="M1010 2234 c-125 -23 -190 -37 -229 -51 -411 -137 -702 -481 -766
-905 -19 -123 -19 -193 0 -316 38 -254 154 -475 339 -650 436 -413 1107 -412
1544 2 465 440 464 1173 -2 1614 -156 147 -338 242 -551 287 -79 16 -286 28
-335 19z m296 -59 c450 -79 794 -417 885 -870 15 -77 15 -293 0 -370 -54 -269
-199 -504 -408 -661 -648 -488 -1563 -137 -1724 661 -15 77 -15 293 0 370 68
335 267 604 565 760 210 111 453 150 682 110z"/>
<path d="M767 2094 c-3 -4 2 -19 13 -33 10 -15 26 -47 35 -72 30 -79 58 -139
67 -139 12 0 11 1 -23 74 -17 37 -34 90 -38 119 -5 42 -10 53 -26 55 -12 2
-24 0 -28 -4z"/>
<path d="M1526 2015 c-15 -35 -47 -48 -61 -25 -8 14 -25 3 -25 -17 0 -8 9 -17
20 -20 11 -3 20 -8 20 -12 0 -11 -60 -46 -75 -43 -15 3 -32 -24 -22 -34 8 -9
69 26 110 62 25 23 47 34 68 34 17 0 28 4 24 10 -3 6 -18 10 -32 10 -25 0 -25
1 -10 18 19 20 23 52 7 52 -5 0 -16 -16 -24 -35z"/>
<path d="M735 1991 c-3 -5 -1 -13 5 -16 6 -4 18 -24 26 -46 9 -21 20 -37 24
-34 8 5 0 52 -15 88 -8 18 -30 23 -40 8z"/>
<path d="M680 1985 c0 -3 11 -28 25 -55 14 -27 25 -63 25 -79 0 -16 5 -33 10
-36 16 -10 12 32 -10 106 -14 44 -26 69 -35 69 -8 0 -15 -2 -15 -5z"/>
<path d="M1495 1863 c9 -39 31 -61 46 -46 9 9 6 19 -12 42 -30 38 -43 39 -34
4z"/>
<path d="M936 1830 c-95 -26 -184 -72 -269 -140 -76 -61 -88 -74 -141 -148
-71 -100 -109 -203 -127 -342 -32 -247 89 -519 294 -664 83 -57 84 -58 90 -42
4 10 -10 24 -41 42 -26 15 -82 63 -124 106 -162 163 -230 396 -182 626 66 322
356 555 689 555 277 0 525 -158 640 -408 90 -194 86 -399 -11 -603 -36 -74
-60 -107 -122 -170 -42 -43 -99 -91 -125 -107 -34 -19 -45 -31 -38 -38 14 -14
45 3 127 70 225 187 315 499 224 784 -74 232 -272 417 -511 479 -98 26 -276
26 -373 0z"/>
<path d="M342 1700 c-39 -24 -74 -96 -76 -157 -1 -31 -6 -43 -19 -47 -25 -6
-11 -33 25 -45 66 -23 106 -6 51 21 -21 10 -29 22 -31 47 -3 28 -1 33 13 27 9
-3 21 -6 26 -6 5 0 9 -11 9 -25 0 -14 5 -25 10 -25 6 0 10 12 10 26 0 16 12
37 30 54 19 18 30 38 30 55 0 14 5 35 11 46 7 15 7 24 -2 35 -16 20 -48 18
-87 -6z m48 -42 c0 -39 -12 -68 -26 -68 -8 0 -14 9 -14 19 0 11 -7 21 -15 23
-14 3 -14 5 0 26 9 12 25 22 36 22 13 0 19 -7 19 -22z m-62 -71 c2 -10 -3 -17
-12 -17 -10 0 -16 9 -16 21 0 24 23 21 28 -4z"/>
<path d="M990 1692 c0 -17 42 -42 70 -43 23 -1 23 -2 -6 -10 -49 -14 -58 -33
-64 -133 l-5 -91 -57 -3 c-42 -2 -60 -8 -67 -20 -5 -9 -12 -80 -16 -157 -4
-77 -13 -220 -20 -318 -13 -171 -14 -180 -44 -225 l-31 -47 38 -3 c30 -3 41 1
60 25 l23 28 -7 -27 c-6 -27 -4 -28 30 -28 29 0 36 4 40 23 8 36 15 151 22
342 4 99 10 203 13 230 6 48 7 50 41 53 l35 4 -21 -24 c-20 -22 -22 -37 -28
-273 l-7 -250 23 -35 c54 -80 142 -88 211 -19 l40 39 -8 258 c-5 197 -10 262
-21 280 -14 21 -13 22 11 22 14 0 28 -6 31 -13 2 -7 11 -147 18 -310 9 -205
17 -301 26 -312 7 -8 28 -15 47 -15 31 0 33 2 23 21 -17 31 -4 35 15 5 14 -21
25 -26 56 -26 l39 0 -31 44 c-31 43 -31 44 -45 257 -25 367 -31 447 -38 458
-4 6 -31 11 -60 11 l-53 0 -11 96 c-6 53 -16 102 -23 110 -6 8 -26 18 -43 23
l-31 9 30 1 c17 1 36 6 43 13 24 24 12 33 -37 30 -40 -3 -51 -8 -60 -28 -14
-31 -29 -31 -37 1 -5 21 -12 25 -44 25 -21 0 -45 3 -54 6 -9 3 -16 1 -16 -4z
m175 -82 c21 -24 14 -65 -15 -80 -18 -10 -20 -21 -20 -125 l0 -115 25 0 25 0
-20 -20 c-19 -19 -20 -33 -20 -270 0 -216 -2 -250 -15 -250 -13 0 -15 34 -15
244 0 231 -1 245 -21 270 l-20 26 20 0 c20 0 21 5 21 115 0 96 -3 117 -16 122
-8 3 -20 17 -25 31 -22 57 54 98 96 52z"/>
<path d="M1880 1555 c0 -9 11 -19 23 -24 13 -5 36 -24 51 -42 25 -29 26 -34
11 -39 -15 -5 -15 -7 -1 -19 20 -17 39 -5 31 20 -5 15 -1 19 14 19 12 0 21 5
21 10 0 7 7 7 20 0 16 -8 24 -8 35 4 8 8 15 17 15 21 0 7 -83 -1 -114 -11 -13
-4 -17 -2 -14 7 3 8 10 15 16 15 25 3 27 5 13 13 -11 7 -9 10 8 16 11 3 21 11
21 16 0 12 0 12 -49 -12 l-43 -20 -22 20 c-26 25 -36 26 -36 6z"/>
<path d="M2035 1540 c-19 -8 -19 -9 3 -9 12 -1 22 4 22 9 0 6 -1 10 -2 9 -2 0
-12 -4 -23 -9z"/>
<path d="M1850 1507 c0 -8 7 -20 15 -27 17 -14 11 -30 -11 -30 -8 0 -14 7 -14
15 0 8 -4 15 -10 15 -5 0 -10 -9 -10 -20 0 -16 7 -20 34 -20 21 0 36 -6 40
-16 8 -22 25 -8 19 16 -7 27 -63 87 -63 67z"/>
<path d="M1913 1492 c10 -10 14 -22 10 -25 -3 -4 -1 -7 5 -7 16 0 15 23 0 38
-19 19 -33 14 -15 -6z"/>
<path d="M1950 1173 c0 -15 5 -20 18 -17 9 2 24 0 32 -5 13 -9 12 -12 -5 -25
-11 -9 -25 -14 -31 -12 -7 3 -9 -5 -6 -20 l4 -24 31 22 c16 12 45 22 64 22 30
1 33 4 33 31 0 17 -4 25 -8 19 -4 -7 -16 -13 -27 -15 -23 -4 -86 19 -97 35 -4
6 -8 2 -8 -11z"/>
<path d="M166 1164 c-28 -72 39 -117 74 -49 17 34 30 46 42 39 16 -10 8 -43
-14 -58 l-22 -16 21 0 c17 0 24 8 29 35 12 68 -42 90 -77 30 -12 -19 -27 -35
-35 -35 -20 0 -17 47 4 59 15 9 15 10 1 11 -9 0 -20 -7 -23 -16z"/>
<path d="M1946 1008 c-8 -32 -7 -58 2 -56 4 1 31 -2 60 -6 38 -6 52 -12 53
-24 0 -14 2 -13 9 3 16 36 11 41 -52 51 -66 9 -76 21 -37 41 l24 13 -26 0
c-19 0 -28 -6 -33 -22z"/>
<path d="M272 1009 c-12 -5 -40 -10 -62 -11 -37 -3 -40 -5 -40 -33 0 -18 3
-25 8 -18 9 14 109 36 123 27 11 -6 12 16 1 32 -4 8 -15 8 -30 3z"/>
<path d="M1930 927 c0 -8 10 -17 22 -20 30 -8 30 -5 2 16 -19 14 -24 15 -24 4z"/>
<path d="M260 892 c-31 -9 -50 -36 -49 -66 1 -29 1 -30 8 -6 9 33 81 61 105
41 18 -15 21 -47 6 -56 -17 -11 -11 -23 9 -18 16 4 17 10 11 39 -5 19 -13 41
-19 48 -13 16 -49 25 -71 18z"/>
<path d="M1904 842 c-10 -25 -8 -27 15 -28 14 -1 45 -10 69 -22 23 -11 42 -16
42 -12 0 5 3 16 7 26 4 11 3 15 -4 11 -12 -8 -104 28 -113 43 -3 5 -10 -3 -16
-18z"/>
<path d="M229 778 c7 -10 23 -17 35 -17 20 1 20 2 1 6 -11 3 -27 10 -35 17
-13 10 -13 9 -1 -6z"/>
<path d="M379 743 c-7 -16 -99 -64 -110 -57 -6 3 -3 -5 6 -19 l17 -26 21 20
c12 11 27 17 35 14 7 -2 10 -1 7 4 -5 9 32 27 48 23 11 -3 8 11 -7 31 -8 10
-16 14 -17 10z"/>
<path d="M1851 728 c-10 -18 -11 -20 0 -10 7 6 22 12 34 12 16 0 17 2 5 10
-21 14 -23 13 -39 -12z"/>
<path d="M1897 697 c-23 -18 -31 -19 -47 -9 -22 14 -25 9 -10 -19 14 -25 48
-24 77 2 18 18 25 20 38 9 12 -10 15 -10 15 2 0 17 -20 38 -34 37 -6 0 -24
-10 -39 -22z"/>
<path d="M411 663 c-7 -8 -22 -13 -31 -10 -12 3 -17 0 -14 -7 6 -15 -43 -39
-59 -29 -7 4 -5 -2 3 -13 8 -10 15 -20 16 -22 1 -2 26 10 56 27 30 17 58 28
63 24 6 -6 -11 33 -19 43 0 1 -7 -5 -15 -13z"/>
<path d="M1925 631 c-26 -6 -27 -8 -11 -14 13 -5 25 -2 35 8 8 8 13 14 11 14
-3 -1 -18 -4 -35 -8z"/>
<path d="M470 599 c0 -8 -16 -30 -35 -49 -41 -39 -42 -49 -15 -81 20 -23 20
-23 8 -2 -11 21 -9 27 32 68 42 43 43 46 27 62 -14 15 -17 15 -17 2z"/>
<path d="M1738 568 c-18 -23 -27 -39 -20 -34 9 5 30 -6 61 -33 48 -40 49 -40
67 -20 13 14 14 18 3 15 -8 -3 -34 12 -59 34 -36 32 -42 42 -32 52 15 15 47
-1 47 -23 0 -18 50 -43 70 -35 8 3 15 13 14 23 0 10 -3 13 -5 7 -2 -6 -18 -8
-35 -6 -22 3 -29 9 -24 19 7 20 -12 43 -35 43 -10 0 -33 -19 -52 -42z"/>
<path d="M945 539 c-11 -4 -14 -8 -7 -8 8 -1 12 -17 12 -46 0 -30 4 -45 13
-45 9 0 12 13 9 43 -5 65 -5 65 -27 56z"/>
<path d="M1051 541 c-9 -6 -12 -18 -8 -32 3 -13 1 -29 -4 -36 -11 -13 -4 -33
11 -33 4 0 6 9 3 20 -4 13 0 20 10 20 17 0 40 -24 30 -33 -3 -4 -1 -7 6 -7 17
0 25 28 13 43 -6 7 -9 22 -6 34 4 13 0 22 -12 27 -14 5 -15 4 -4 -9 9 -11 10
-19 2 -27 -15 -15 -35 1 -29 23 3 11 4 19 4 19 -1 0 -8 -4 -16 -9z"/>
<path d="M1160 535 c-13 -16 -10 -47 5 -52 6 -1 10 13 11 32 1 40 1 40 -16 20z"/>
<path d="M1198 495 c3 -47 6 -54 18 -44 19 15 18 64 -2 83 -8 9 -16 16 -17 16
-1 0 0 -25 1 -55z"/>
<path d="M535 527 c4 -9 -2 -21 -16 -31 -13 -8 -21 -18 -18 -20 2 -2 16 6 31
19 23 20 25 25 12 36 -12 10 -13 9 -9 -4z"/>
<path d="M1270 521 c-14 -27 -13 -56 4 -70 12 -10 15 -3 18 39 3 52 -4 63 -22
31z"/>
<path d="M1320 530 c0 -5 5 -10 10 -10 6 0 10 5 10 10 0 6 -4 10 -10 10 -5 0
-10 -4 -10 -10z"/>
<path d="M1318 470 c5 -35 22 -30 22 6 0 13 -6 24 -13 24 -9 0 -12 -10 -9 -30z"/>
<path d="M1652 488 c-8 -10 -3 -13 19 -14 23 -1 27 2 18 12 -14 17 -24 18 -37
2z"/>
<path d="M466 454 c-11 -8 -16 -14 -10 -14 13 0 39 18 34 24 -3 2 -14 -2 -24
-10z"/>
<path d="M1601 449 c-14 -11 -18 -19 -10 -19 20 -1 81 -88 73 -103 -5 -6 14 6
42 27 27 22 51 41 53 42 1 2 -4 13 -13 26 l-16 22 0 -31 c0 -45 -23 -60 -49
-32 -21 23 -19 44 5 35 19 -7 18 8 -1 24 -12 10 -15 10 -15 -4 0 -25 -27 -19
-37 8 -8 24 -8 24 -32 5z"/>
<path d="M1150 450 c0 -5 5 -10 10 -10 6 0 10 5 10 10 0 6 -4 10 -10 10 -5 0
-10 -4 -10 -10z"/>
<path d="M628 439 c-9 -5 -14 -17 -11 -28 5 -21 -11 -36 -27 -26 -8 5 -7 12 2
23 10 12 4 11 -22 -5 -19 -11 -41 -22 -48 -24 -8 -3 -5 -9 9 -17 12 -8 18 -9
15 -4 -3 5 1 15 8 21 11 9 19 9 35 -1 23 -14 26 -29 10 -45 -8 -8 -6 -14 8
-22 19 -9 21 -5 33 60 6 39 10 72 8 74 -2 2 -11 -1 -20 -6z"/>
<path d="M1530 400 c-9 -6 -10 -10 -3 -10 6 0 14 -8 16 -17 3 -11 5 -7 6 10 1
30 1 30 -19 17z"/>
<path d="M745 364 c0 -13 3 -24 6 -24 3 0 12 -26 19 -57 17 -79 20 -82 41 -38
23 46 24 56 5 30 -13 -18 -15 -17 -21 20 -11 63 -15 74 -33 84 -14 7 -17 4
-17 -15z"/>
<path d="M1460 365 c-14 -8 -19 -14 -12 -15 7 0 33 -20 59 -45 25 -25 47 -45
49 -45 2 0 3 19 3 43 -1 23 -4 32 -6 20 l-4 -22 -26 22 c-14 12 -28 30 -32 39
-5 14 -9 15 -31 3z"/>
<path d="M834 323 c-1 -13 -1 -23 0 -21 1 2 7 10 14 19 10 13 10 18 0 22 -8 3
-14 -5 -14 -20z"/>
<path d="M1359 333 c-14 -3 -14 -8 4 -44 11 -23 20 -53 21 -68 1 -26 3 -27 28
-19 24 8 26 12 14 24 -8 7 -20 36 -27 64 -7 27 -15 49 -18 49 -3 -1 -13 -3
-22 -6z"/>
<path d="M720 300 c-7 -16 -17 -30 -22 -30 -5 0 -6 -4 -3 -10 3 -5 11 -10 17
-10 6 0 9 3 5 6 -3 4 1 20 9 36 9 17 13 32 11 34 -2 3 -10 -9 -17 -26z"/>
<path d="M1256 303 c5 -5 12 -12 15 -16 3 -5 9 -2 12 7 5 12 0 16 -15 16 -12
0 -17 -3 -12 -7z"/>
<path d="M1000 235 l0 -64 35 -7 c43 -8 65 8 64 45 -1 25 -2 25 -8 -4 -4 -22
-13 -31 -30 -33 -13 -2 -27 2 -31 8 -10 17 1 103 14 112 6 4 -1 8 -16 8 -28 0
-28 -1 -28 -65z"/>
<path d="M1080 296 c0 -2 7 -9 15 -16 9 -7 15 -8 15 -2 0 5 -7 12 -15 16 -8 3
-15 4 -15 2z"/>
<path d="M1177 263 c7 -45 13 -56 13 -23 0 22 4 20 50 -25 27 -27 52 -47 54
-44 3 3 1 27 -3 54 -6 34 -9 41 -10 20 l-1 -29 -43 42 c-54 53 -68 54 -60 5z"/>
<path d="M1188 188 c-4 -24 -2 -28 16 -28 13 0 16 3 10 8 -7 4 -14 16 -16 27
-3 17 -5 15 -10 -7z"/>
</g>
</svg>
