<?xml version="1.0" standalone="no"?>
<!DOCTYPE svg PUBLIC "-//W3C//DTD SVG 20010904//EN"
 "http://www.w3.org/TR/2001/REC-SVG-20010904/DTD/svg10.dtd">
<svg version="1.0" xmlns="http://www.w3.org/2000/svg"
 width="225.000000pt" height="225.000000pt" viewBox="0 0 225.000000 225.000000"
 preserveAspectRatio="xMidYMid meet">

<g transform="translate(0.000000,225.000000) scale(0.100000,-0.100000)"
fill="#000000" stroke="none">
<path d="M282 1898 c-15 -15 -15 -51 0 -66 7 -7 40 -12 80 -12 l68 0 0 -320 0
-319 -191 -258 c-105 -142 -200 -276 -212 -298 -15 -27 -21 -59 -22 -101 0
-52 4 -66 29 -98 16 -21 50 -48 75 -60 45 -21 55 -21 636 -21 l590 0 56 27
c68 34 99 82 99 154 -1 70 -21 107 -167 304 -71 97 -132 181 -136 186 -3 6 16
41 43 79 42 57 50 75 50 111 l0 44 85 0 c74 0 86 2 95 20 8 14 8 26 0 40 -9
18 -21 20 -95 20 l-85 0 0 65 0 65 71 0 c97 0 134 24 109 71 -9 16 -22 19 -95
19 l-85 0 0 65 0 65 75 0 c61 0 79 4 95 20 20 20 18 47 -4 62 -6 4 -46 8 -88
8 l-78 0 0 53 c0 81 -11 87 -157 87 -103 0 -122 -3 -136 -18 -15 -17 -17 -57
-17 -374 l0 -355 50 -68 c27 -38 46 -73 43 -79 -4 -5 -65 -89 -136 -186 -151
-204 -170 -241 -165 -313 3 -29 8 -60 12 -69 8 -17 -10 -18 -288 -18 -249 0
-302 3 -336 16 -63 26 -77 72 -41 142 11 20 107 156 215 302 190 257 196 266
196 312 l0 48 95 0 c84 0 95 2 105 20 8 14 8 26 0 40 -10 18 -21 20 -105 20
l-95 0 0 65 0 65 85 0 c71 0 88 3 105 20 15 15 17 25 11 42 -8 21 -15 23 -105
26 l-96 3 0 64 0 65 85 0 c71 0 88 3 105 20 20 20 18 47 -4 62 -6 4 -50 8 -98
8 l-88 0 0 60 c0 48 -4 61 -19 70 -28 14 -204 13 -219 -2z m908 -394 l0 -316
-32 -44 c-17 -24 -32 -44 -33 -44 -1 0 -16 20 -33 44 l-32 44 0 316 0 316 65
0 65 0 0 -316z m65 -729 c139 -190 147 -204 143 -257 -2 -31 -10 -46 -31 -62
-27 -20 -41 -21 -242 -21 -201 0 -215 1 -242 21 -38 28 -43 90 -13 142 43 72
254 352 261 344 4 -4 59 -79 124 -167z"/>
<path d="M1112 674 c-45 -31 -17 -104 41 -104 26 0 57 31 57 58 0 17 -45 62
-62 62 -8 0 -24 -7 -36 -16z"/>
<path d="M1748 1899 c-17 -9 -18 -38 -18 -377 l0 -367 196 -265 c108 -146 204
-282 215 -302 38 -74 18 -126 -58 -147 -22 -6 -145 -11 -294 -11 -215 0 -259
-2 -269 -15 -18 -22 -4 -64 24 -71 13 -3 142 -4 287 -2 244 3 267 5 310 24 25
12 59 39 75 60 25 32 29 46 29 98 -1 42 -7 73 -22 101 -12 22 -107 156 -212
298 l-191 259 0 318 0 319 56 3 c44 2 60 8 70 23 12 18 11 24 -2 43 -14 20
-24 22 -97 22 -45 0 -90 -5 -99 -11z"/>
<path d="M1469 1061 c-56 -57 -20 -141 61 -141 30 0 80 53 80 85 0 35 -50 85
-85 85 -16 0 -38 -12 -56 -29z"/>
<path d="M726 1028 c-9 -12 -16 -30 -16 -40 0 -24 35 -58 60 -58 27 0 60 35
60 63 0 53 -75 77 -104 35z"/>
<path d="M534 907 c-66 -57 -7 -154 76 -126 55 20 68 82 25 124 -30 31 -66 32
-101 2z"/>
<path d="M1648 790 c-26 -27 -30 -36 -25 -68 13 -78 94 -107 148 -53 60 61 21
151 -66 151 -16 0 -38 -12 -57 -30z"/>
<path d="M383 674 c-46 -23 -69 -76 -54 -126 13 -42 58 -78 99 -78 55 0 112
56 112 110 0 37 -30 81 -65 96 -43 18 -52 17 -92 -2z"/>
<path d="M1893 594 c-8 -22 10 -49 32 -49 10 0 22 7 28 16 15 24 1 49 -28 49
-15 0 -28 -7 -32 -16z"/>
</g>
</svg>
