<?xml version="1.0" standalone="no"?>
<!DOCTYPE svg PUBLIC "-//W3C//DTD SVG 20010904//EN"
 "http://www.w3.org/TR/2001/REC-SVG-20010904/DTD/svg10.dtd">
<svg version="1.0" xmlns="http://www.w3.org/2000/svg"
 width="400.000000pt" height="400.000000pt" viewBox="0 0 400.000000 400.000000"
 preserveAspectRatio="xMidYMid meet">

<g transform="translate(0.000000,400.000000) scale(0.100000,-0.100000)"
fill="#000000" stroke="none">
<path d="M1855 3994 c-422 -41 -783 -180 -1083 -417 -530 -418 -816 -1064
-764 -1727 37 -475 227 -898 556 -1239 512 -530 1279 -735 1987 -531 760 219
1314 858 1430 1650 16 110 16 430 0 540 -130 885 -806 1571 -1681 1706 -95 14
-369 26 -445 18z m380 -99 c731 -91 1352 -601 1579 -1297 253 -775 -5 -1610
-654 -2115 -389 -303 -908 -442 -1405 -377 -214 27 -375 75 -574 170 -590 282
-991 832 -1076 1477 -136 1044 598 1999 1649 2142 128 18 341 18 481 0z"/>
<path d="M1805 3840 c-413 -44 -812 -236 -1111 -534 -272 -272 -449 -615 -521
-1006 -24 -133 -24 -467 0 -600 71 -391 241 -719 512 -995 371 -377 866 -573
1390 -551 588 24 1127 326 1456 815 474 703 411 1624 -154 2262 -387 437 -990
671 -1572 609z m411 -146 l21 -6 -18 -76 c-10 -42 -18 -88 -19 -101 0 -53 61
-80 98 -43 9 9 26 57 36 105 19 87 20 88 45 82 14 -4 27 -8 29 -9 1 -2 -7 -44
-19 -94 -23 -103 -44 -135 -95 -152 -70 -24 -154 33 -154 104 0 34 40 196 49
196 3 0 15 -3 27 -6z m-426 -38 c0 -21 -5 -24 -60 -30 -59 -7 -60 -8 -60 -37
l0 -31 63 4 c57 3 62 1 65 -18 3 -20 -3 -23 -57 -29 l-60 -7 6 -31 c3 -18 7
-33 8 -34 0 -2 28 2 60 7 32 5 60 9 61 7 1 -1 4 -11 8 -22 5 -18 -2 -22 -86
-37 -51 -9 -93 -16 -95 -15 -4 4 -44 269 -41 273 5 4 120 21 156 23 27 1 32
-2 32 -23z m775 -143 c11 -56 23 -104 26 -108 4 -3 19 24 33 62 35 90 39 96
65 88 11 -3 21 -10 21 -15 0 -13 -90 -233 -99 -243 -5 -4 -20 -3 -34 4 -26 12
-38 46 -62 182 -4 20 -11 37 -15 37 -4 0 -21 -35 -37 -77 -25 -63 -35 -77 -49
-75 -11 2 -22 7 -27 11 -4 4 16 64 44 134 l51 126 31 -13 c30 -12 33 -17 52
-113z m-1090 28 c-19 -46 -33 -86 -31 -90 3 -3 39 -22 80 -41 42 -18 76 -37
76 -41 0 -4 -15 -10 -34 -13 -25 -5 -50 1 -100 23 -36 17 -66 26 -66 22 0 -5
7 -25 15 -44 20 -48 19 -52 -10 -65 -29 -14 -23 -25 -85 138 -37 97 -39 106
-23 117 29 22 40 15 59 -37 10 -27 20 -50 24 -50 3 0 17 30 31 68 21 54 32 70
59 84 19 10 35 16 37 15 1 -2 -13 -41 -32 -86z m1350 -55 c18 -13 15 -19 -50
-134 l-68 -121 -24 16 c-13 9 -22 19 -21 22 15 35 132 231 137 231 4 0 16 -6
26 -14z m88 -48 c15 -12 14 -21 -13 -117 -16 -58 -28 -106 -27 -107 1 -1 42
24 92 56 49 32 94 56 100 53 37 -21 32 -27 -86 -104 -101 -66 -124 -77 -141
-68 -10 6 -21 16 -24 23 -6 15 65 276 75 276 4 0 15 -6 24 -12z m-1703 -79
c131 -85 139 -93 109 -109 -16 -9 -27 -9 -44 0 -19 10 -29 8 -73 -22 -40 -26
-50 -37 -46 -53 5 -20 -30 -65 -41 -54 -2 3 -18 66 -35 139 l-30 135 22 17
c13 10 25 18 26 18 2 0 53 -32 112 -71z m1061 -133 c235 -54 420 -157 594
-331 145 -145 237 -291 299 -477 47 -141 59 -223 60 -393 0 -139 -4 -174 -27
-266 -64 -260 -176 -453 -364 -629 -415 -388 -1042 -438 -1519 -120 -109 73
-285 254 -353 363 -202 328 -245 707 -120 1065 152 434 550 754 1010 812 117
14 299 4 420 -24z m969 -77 c27 -33 28 -36 10 -47 -16 -10 -24 -6 -54 26 -20
20 -36 40 -36 45 0 14 -27 7 -45 -13 -17 -18 -16 -21 19 -61 40 -48 43 -57 19
-66 -11 -4 -27 7 -54 38 l-37 44 -26 -24 -25 -24 41 -49 c32 -38 39 -51 30
-60 -10 -10 -27 2 -79 54 l-66 66 34 30 c19 16 66 57 104 90 l70 61 33 -37
c18 -20 46 -53 62 -73z m-2223 -62 c44 38 50 40 60 24 9 -15 0 -27 -58 -79
l-68 -62 -91 102 -91 102 23 18 c23 18 23 18 99 -64 l77 -82 49 41z m-266 17
c18 -16 17 -18 -7 -47 l-26 -31 81 -75 c81 -76 81 -76 63 -98 l-19 -21 -84 73
-84 73 -26 -31 c-23 -27 -29 -30 -43 -18 -9 7 -16 18 -16 23 0 9 130 166 139
167 3 1 13 -6 22 -15z m2627 -128 c31 -50 33 -58 22 -89 -13 -40 -53 -62 -97
-53 -25 6 -30 2 -53 -39 -27 -50 -32 -52 -51 -29 -11 14 -9 24 16 70 27 49 28
55 14 70 -15 14 -20 13 -54 -10 -45 -31 -51 -32 -65 -6 -9 17 1 27 97 95 121
85 114 86 171 -9z m-2763 -116 c9 -15 -14 -50 -33 -50 -25 0 -42 -20 -42 -47
0 -34 31 -29 80 12 46 38 67 42 109 20 33 -17 41 -33 41 -82 0 -49 -54 -103
-102 -103 -19 0 -38 3 -41 6 -12 13 13 41 41 47 48 10 71 87 25 87 -10 0 -38
-16 -62 -35 -24 -19 -52 -35 -62 -35 -55 0 -98 54 -85 106 11 41 59 84 95 84
16 0 33 -4 36 -10z m2879 -71 c52 -24 71 -126 30 -159 -16 -14 -16 -14 -31 14
-8 14 -8 25 0 37 14 22 -17 72 -41 67 -14 -3 -17 -14 -14 -74 3 -69 2 -72 -28
-98 -36 -30 -66 -33 -98 -10 -52 36 -67 113 -30 159 l21 27 12 -23 c9 -16 10
-28 2 -39 -23 -37 19 -101 53 -80 11 7 14 27 12 78 -3 65 -2 71 24 91 30 24
52 26 88 10z m-3026 -174 c1 -1 -7 -28 -19 -60 -22 -58 -20 -68 16 -79 18 -5
23 2 40 49 16 48 21 54 39 49 28 -9 28 -7 12 -45 -29 -72 -29 -76 4 -88 34
-11 29 -17 61 72 11 30 17 36 34 31 11 -4 21 -7 22 -8 4 -3 -54 -166 -60 -173
-5 -5 -257 86 -257 93 0 2 14 42 31 89 28 77 33 85 53 79 11 -4 22 -8 24 -9z
m3152 -83 c0 -27 -2 -28 -125 -56 -129 -30 -151 -29 -143 9 2 13 30 25 113 45
147 37 155 37 155 2z m38 -183 c12 -55 19 -105 16 -110 -3 -5 -14 -9 -24 -9
-14 0 -20 10 -25 40 -5 32 -11 40 -24 35 -46 -14 -196 -43 -203 -39 -4 3 -8
16 -8 29 0 20 7 25 53 34 28 6 76 16 105 23 l53 11 -7 44 c-6 41 -5 43 18 43
23 0 26 -7 46 -101z m-3058 -82 c0 -30 -5 -36 -70 -70 -38 -21 -72 -41 -74
-45 -2 -4 25 -23 60 -42 61 -33 64 -35 64 -72 l0 -38 -125 0 -125 0 0 25 c0
24 2 24 88 27 l87 3 -65 36 c-89 49 -90 66 -8 113 l63 36 -82 0 -83 0 0 30 0
30 135 0 135 0 0 -33z m3090 -85 c0 -23 -10 -33 -56 -61 l-57 -34 24 -18 c13
-10 39 -26 57 -36 24 -13 32 -24 32 -45 0 -16 -2 -28 -5 -28 -4 0 -34 19 -68
42 -53 36 -72 43 -127 48 -62 5 -65 6 -68 33 -3 26 -2 27 50 27 47 0 64 6 133
50 44 27 81 49 83 50 1 0 2 -12 2 -28z m-2910 -873 c0 -5 30 -45 66 -90 73
-91 100 -139 90 -164 -8 -23 -20 -13 -56 50 -17 30 -33 55 -35 55 -2 0 -3 -14
-3 -30 1 -17 -7 -39 -17 -50 -18 -20 -18 -21 2 -48 11 -15 25 -42 31 -59 21
-61 -30 -77 -150 -47 -22 5 -28 3 -28 -10 0 -23 -27 -20 -35 4 -11 35 -102
165 -139 198 -20 18 -36 39 -36 46 0 43 68 146 96 146 25 0 15 -47 -16 -82
-33 -36 -35 -41 -19 -70 11 -20 11 -20 36 4 13 12 31 39 39 58 13 30 17 33 25
18 9 -16 12 -16 42 2 57 35 70 24 41 -36 -16 -33 -15 -34 13 -58 15 -14 36
-26 45 -26 22 0 60 49 50 65 -13 24 -83 95 -92 95 -17 0 -11 39 7 49 18 10 43
-2 43 -20z m2438 -15 c62 -43 67 -45 79 -27 31 43 44 53 67 53 37 0 40 -16 9
-55 -21 -27 -29 -31 -32 -19 -4 23 -56 -73 -88 -166 -26 -74 -47 -110 -66
-110 -5 0 -6 15 -2 36 4 23 3 34 -4 30 -11 -7 -91 22 -91 33 0 9 22 31 30 31
4 0 17 -9 30 -20 25 -22 45 -26 55 -10 3 6 -4 10 -15 10 -12 0 -35 9 -50 20
-16 11 -45 27 -64 35 -36 15 -45 28 -25 40 17 11 57 -4 91 -34 33 -28 78 -46
78 -31 0 5 -15 14 -34 20 -19 6 -40 18 -46 26 -10 12 -8 14 13 14 14 0 31 -9
40 -22 9 -13 16 -18 16 -11 1 20 -28 42 -71 54 -41 11 -106 64 -94 77 4 3 22
7 41 8 27 1 35 -3 37 -20 2 -14 12 -22 28 -24 14 -2 41 -19 61 -39 37 -35 49
-32 49 14 0 12 -3 13 -14 4 -10 -8 -19 -6 -39 9 -14 11 -36 20 -49 20 l-23 1
22 18 22 18 -25 12 c-14 6 -30 9 -35 6 -5 -4 -9 -3 -9 1 0 8 31 44 38 44 2 0
34 -21 70 -46z m197 -164 c-14 -28 -14 -29 20 -50 41 -25 75 -66 75 -90 0 -9
-20 -31 -45 -49 -50 -36 -55 -34 -23 9 26 36 17 65 -31 99 l-31 22 -17 -61
c-10 -37 -24 -65 -36 -71 -25 -14 -33 -4 -20 24 14 30 43 111 43 121 0 4 -6 6
-14 3 -8 -3 -17 -1 -20 6 -3 7 -4 -8 -3 -33 2 -53 -22 -67 -42 -24 -10 23 -10
29 3 36 9 5 16 21 16 36 0 28 16 52 33 52 5 0 7 -9 4 -20 -9 -34 35 -25 56 11
14 26 20 29 32 19 13 -11 13 -16 0 -40z m-197 -222 c2 -29 -1 -38 -12 -38 -18
0 -22 6 -31 48 -6 31 -5 33 17 30 19 -2 24 -10 26 -40z m-1824 -110 c22 -31
20 -58 -3 -58 -24 0 -51 26 -51 49 0 37 31 42 54 9z m109 -59 c-13 -34 -10
-49 10 -49 7 0 27 -23 44 -50 20 -30 38 -47 46 -44 7 2 21 -4 32 -15 21 -24
11 -42 -36 -61 l-30 -13 22 -23 c22 -23 19 -44 -6 -44 -8 0 -22 11 -31 25 -17
25 -16 27 17 61 24 25 30 37 22 45 -8 8 -26 -11 -65 -72 -51 -78 -107 -139
-129 -139 -15 0 -10 11 21 47 36 41 110 184 110 213 0 15 -7 20 -29 20 -36 0
-81 -16 -81 -29 0 -6 15 -7 35 -4 47 8 56 -16 21 -58 -14 -17 -26 -34 -26 -39
0 -4 -21 -11 -47 -14 -27 -4 -56 -9 -65 -12 -12 -4 -24 5 -36 26 l-19 31 -34
-67 c-37 -73 -60 -92 -79 -69 -10 12 -5 23 28 62 64 76 109 116 116 104 11
-16 23 -13 46 11 28 30 26 34 -20 30 -30 -3 -41 0 -46 13 -10 25 10 38 68 42
61 5 78 20 78 72 0 19 8 43 17 53 16 18 17 18 37 -2 18 -17 19 -24 9 -51z
m965 15 c19 -13 22 -24 22 -78 l0 -64 61 25 c75 30 117 33 135 8 8 -11 14 -22
14 -26 0 -3 -33 -12 -72 -18 -112 -19 -139 -36 -153 -96 -6 -27 -19 -66 -29
-85 -37 -72 -111 -130 -143 -112 -13 8 -11 13 15 32 41 30 87 96 100 143 6 20
7 37 3 37 -10 0 -52 -29 -83 -58 -27 -25 -29 -25 -63 -9 -19 9 -35 21 -35 27
0 5 43 30 95 55 62 30 96 52 96 63 4 37 -3 85 -17 118 -8 18 -14 38 -14 44 0
15 43 12 68 -6z m-1190 -125 c2 -16 -6 -33 -24 -49 l-27 -25 7 27 c3 16 1 36
-5 47 -7 10 -9 26 -5 36 6 16 8 16 29 3 12 -9 23 -26 25 -39z m460 25 c2 -11
-17 -81 -41 -155 -25 -74 -48 -155 -52 -179 -9 -54 -21 -80 -38 -79 -7 0 -29
23 -50 50 l-38 50 30 -15 c16 -9 34 -16 39 -16 5 0 15 26 22 58 7 31 28 99 46
151 44 122 44 124 -6 106 -37 -13 -40 -13 -51 7 -13 24 -4 35 36 41 65 10 100
3 103 -19z m923 -145 c45 -16 79 -47 79 -75 0 -35 -14 -37 -67 -11 -53 26
-166 87 -172 93 -10 9 129 3 160 -7z"/>
<path d="M1125 3309 c4 -24 10 -47 14 -51 3 -4 22 2 40 13 37 22 39 18 -33 64
l-28 19 7 -45z"/>
<path d="M1865 3214 c-293 -45 -518 -154 -706 -344 -406 -409 -464 -1030 -140
-1514 54 -81 193 -226 271 -283 195 -141 414 -219 650 -230 218 -10 390 26
585 122 539 264 793 882 599 1454 -130 383 -462 679 -864 772 -83 19 -327 33
-395 23z m398 -359 c181 -21 488 -96 546 -134 11 -7 8 -24 -20 -95 -18 -47
-38 -86 -44 -86 -6 0 -51 13 -99 30 -220 74 -451 106 -705 97 -227 -8 -403
-40 -592 -108 -46 -16 -88 -31 -92 -32 -7 -2 -45 78 -77 160 -8 20 -1 24 128
66 316 105 638 139 955 102z m-845 -899 c3 -384 4 -411 23 -447 26 -53 86 -91
152 -97 42 -4 63 -14 114 -53 34 -26 78 -53 98 -60 19 -7 35 -17 35 -22 0 -4
-24 -19 -54 -33 -235 -107 -496 15 -560 261 -13 49 -16 130 -16 462 l0 404
103 -3 102 -3 3 -409z m382 92 c0 -202 4 -338 11 -363 25 -90 98 -145 192
-145 69 0 136 40 169 102 22 42 23 50 26 386 l3 342 100 0 99 0 0 -337 c0
-248 -4 -353 -14 -395 -47 -199 -253 -335 -451 -299 -134 25 -240 106 -298
229 l-32 67 -3 368 -3 367 100 0 101 0 0 -322z m990 -72 c0 -224 -4 -416 -10
-447 -39 -206 -242 -352 -447 -320 -64 10 -173 53 -172 68 0 4 26 21 57 36 32
15 74 43 94 62 30 29 44 35 79 35 63 0 126 35 160 88 l29 46 0 406 c0 224 3
410 7 413 3 4 51 7 105 7 l98 0 0 -394z"/>
<path d="M3288 2972 c-34 -20 -34 -25 -6 -62 24 -33 49 -38 68 -15 13 16 8 40
-18 72 -16 21 -18 21 -44 5z"/>
<path d="M601 1114 l-34 -14 22 -24 c21 -22 25 -23 49 -10 15 8 33 14 40 14
19 0 14 17 -10 34 -27 19 -24 19 -67 0z"/>
<path d="M673 1023 c-21 -8 -15 -40 10 -47 33 -9 80 -7 97 4 12 7 12 12 -4 29
-18 20 -71 27 -103 14z"/>
<path d="M3200 1250 c0 -5 5 -10 11 -10 5 0 7 5 4 10 -3 6 -8 10 -11 10 -2 0
-4 -4 -4 -10z"/>
<path d="M1353 553 c-12 -4 -19 -43 -8 -43 14 0 73 29 79 39 7 11 -46 15 -71
4z"/>
</g>
</svg>
